# xmcd
#
# Track frame offsets: 
#        150
#        16397
#        35358
#        56709
#        76518
#        93654
#        115918
#        134675
#        149075
#        165157
#        180248
#        198111
#        218822
#        232096
#        250437
#        269286
#        295058
#        312275
#
# Disc length: 4397 seconds
#
# Revision: 1
# Processed by: cddbd v1.5.2PL0 Copyright (c) Steve Scherf et al.
# Submitted via: ExactAudioCopy v1.0b4
#
DISCID=fe112b12
DTITLE=Various Artist - Blues for the Bayou
DYEAR=1998
DGENRE=Blues
TTITLE0=Kenny Neal - Kenny Neal - Right Train, Wrong Track
TTITLE1=Clarence GateMouth Brown - Clarence GateMouth Brown - Alligato
TTITLE1=r Eating Dog
TTITLE2=Sonny Therry - Sonny Therry - Sonny's Whoppin' the Doop
TTITLE3=Professor Longhair - Professor Longhair - Her Mind is Gone
TTITLE4=Koko Taylor - Koko Taylor - Voodoo Woman
TTITLE5=Billy Boy Arnold - Billy Boy Arnold - Prisoner's Plea
TTITLE6=Big Twist and the Mellow Fellows - Big Twist and the Mellow Fe
TTITLE6=llows - Polk Salad Annie
TTITLE7=Noble Thin Man Watts - Noble Thin Man Watts - Red Beans and Ri
TTITLE7=ce
TTITLE8=Elvin Bishop - Elvin Bishop - My Dog
TTITLE9=Clarence Gatemouth Brown - Clarence Gatemouth Brown - Louisian
TTITLE9=a Zydeco
TTITLE10=Lonnie Brooks - Lonnie Brooks - Horoscope
TTITLE11=Katie Webster - Katie Webster - I'm Bad
TTITLE12=Raful Neal - Raful Neal - Luberta
TTITLE13=Carey Bell - Carey Bell - Lonesome Stranger
TTITLE14=Professor Longhair - Professor Longhair - Red Beans
TTITLE15=Long John Hunter - Long John Hunter - Rooster and the Hen
TTITLE16=C.J. Chenier - C.J. Chenier - Lost in the Shuffle
TTITLE17=Delbert McClinton - Delbert McClinton - Gong Back to Louisian
TTITLE17=a (Live)
EXTD=
EXTT0=
EXTT1=
EXTT2=
EXTT3=
EXTT4=
EXTT5=
EXTT6=
EXTT7=
EXTT8=
EXTT9=
EXTT10=
EXTT11=
EXTT12=
EXTT13=
EXTT14=
EXTT15=
EXTT16=
EXTT17=
PLAYORDER=
